<?xml version="1.0" encoding="UTF-8" standalone="no"?>
<!-- Created with Inkscape (http://www.inkscape.org/) -->

<svg
   width="37.999996mm"
   height="37mm"
   viewBox="0 0 37.999996 37"
   version="1.1"
   id="svg5"
   xmlns="http://www.w3.org/2000/svg"
   xmlns:svg="http://www.w3.org/2000/svg">
  <defs
     id="defs2" />
  <g
     id="layer1">
    <g
       aria-label="＠"
       id="text623"
       style="font-size:50.8px;stroke-width:0.264583">
      <path
         d="m 37.582836,15.567659 q 0,6.895703 -3.770313,10.31875 -2.629296,2.480469 -6.895703,2.480469 -2.480468,0 -3.96875,-1.637109 -0.545703,-0.694532 -0.595312,-1.389063 -1.934766,2.629297 -4.960937,2.877344 l -1.141016,0.04961 q -3.770313,0 -5.605859,-3.274219 -0.9921878,-1.835546 -0.9921878,-4.117578 0,-4.415234 3.1253908,-7.987109 3.175,-3.5718749 7.342187,-3.5718749 2.232422,0 3.919141,1.8851559 0.79375,0.892969 1.041797,1.835547 l 0.892968,-2.678906 h 3.373438 q -4.365625,12.799219 -4.365625,12.848828 -0.347266,1.041797 0.843359,1.885156 0.644922,0.446485 1.289844,0.446485 4.71289,0 6.548437,-4.911329 0.744141,-2.083593 0.744141,-4.365624 0,-6.3500004 -5.060156,-9.9218753 -3.522266,-2.4308593 -8.483203,-2.6789062 -0.644922,-0.049609 -1.289844,-0.049609 -6.449219,0 -10.9140623,4.0679687 -4.8121093,4.3656248 -4.8121093,11.6085928 0,7.292578 5.4074218,11.211719 4.1175778,2.976562 10.1203128,2.976562 3.770312,0 7.441406,-1.438671 l 1.190625,2.728515 q -4.861719,1.686719 -9.525,1.686719 -7.689453,0 -12.8488281,-4.415234 -5.25859372,-4.564063 -5.25859372,-12.005469 0,-10.2195307 7.14374992,-15.5277338 5.2585939,-3.9687499 12.8984369,-3.86953115 7.391797,0.0992188 12.402344,4.41523435 4.7625,4.1671874 4.7625,10.5171866 z m -17.611328,-3.175 q -3.373437,0 -5.357812,3.770313 -1.240235,2.282031 -1.240235,4.71289 0,4.7625 3.96875,4.7625 3.522266,0 5.953125,-7.193359 -0.148828,0.545703 0.843359,-2.678906 -1.53789,-3.125391 -4.167187,-3.373438 z"
         id="path625" />
    </g>
  </g>
</svg>
