<?xml version="1.0" encoding="UTF-8" standalone="no"?>
<!-- Created with Inkscape (http://www.inkscape.org/) -->

<svg
   width="56.331444mm"
   height="37.033401mm"
   viewBox="0 0 56.331444 37.033401"
   version="1.1"
   id="svg5"
   xmlns="http://www.w3.org/2000/svg"
   xmlns:svg="http://www.w3.org/2000/svg">
  <defs
     id="defs2" />
  <g
     id="layer1"
     transform="translate(-0.3583414,-0.49421668)">
    <g
       aria-label="â˜"
       id="text113"
       style="font-size:50.8px;stroke-width:0.264583">
      <path
         d="m 21.665568,13.665506 v -1.5875 h -1.21543 v 3.522265 q -0.37207,1.5875 -5.407422,2.80293 -4.836914,1.612304 -4.836914,7.590234 V 36.188161 H 45.850138 V 25.993435 q 0,-5.97793 -4.861719,-7.590234 -5.010547,-1.21543 -5.208984,-2.80293 v -3.522265 h -1.389063 v 1.5875 z m 6.225976,1.785937 q 4.117578,0 6.945313,2.877344 2.852539,2.852539 2.852539,6.895703 0,4.067968 -2.852539,6.920507 -2.85254,2.85254 -6.945313,2.85254 -4.043164,0 -6.920508,-2.85254 -2.852539,-2.852539 -2.852539,-6.920507 0,-4.043164 2.852539,-6.895703 2.852539,-2.877344 6.920508,-2.877344 z m 3.869531,5.903516 q -1.5875,-1.612305 -3.869531,-1.612305 -2.282031,0 -3.894336,1.612305 -1.5875,1.5875 -1.5875,3.869531 0,2.282031 1.5875,3.869531 1.612305,1.5875 3.894336,1.5875 2.282031,0 3.869531,-1.5875 1.612305,-1.5875 1.612305,-3.869531 0,-2.282031 -1.612305,-3.869531 z M 29.106974,16.49324 q -0.396875,-0.396875 -0.967383,-0.396875 -0.570508,0 -0.967383,0.396875 -0.396875,0.396875 -0.396875,0.967383 0,0.570508 0.396875,0.967383 0.396875,0.396874 0.967383,0.396874 0.570508,0 0.967383,-0.396874 0.396875,-0.396875 0.396875,-0.967383 0,-0.570508 -0.396875,-0.967383 z m 0,15.354101 q -0.396875,-0.396875 -0.967383,-0.396875 -0.570508,0 -0.967383,0.396875 -0.396875,0.396875 -0.396875,0.967383 0,0.570508 0.396875,0.967383 0.396875,0.396875 0.967383,0.396875 0.570508,0 0.967383,-0.396875 0.396875,-0.396875 0.396875,-0.967383 0,-0.570508 -0.396875,-0.967383 z M 22.806583,17.832693 q -0.446484,0.322461 -0.545703,0.892969 -0.09922,0.545703 0.223242,1.016992 0.372071,0.446484 0.917774,0.545703 0.570508,0.09922 1.041797,-0.223242 0.446484,-0.37207 0.520898,-0.917774 0.07441,-0.570507 -0.248047,-1.041796 -0.322461,-0.42168 -0.892969,-0.496094 -0.545703,-0.09922 -1.016992,0.223242 z m 9.028906,12.402344 q -0.471289,0.347265 -0.570507,0.917773 -0.07441,0.545703 0.248046,1.016992 0.347266,0.471289 0.892969,0.570508 0.570508,0.07441 1.041797,-0.297656 0.471289,-0.322461 0.545703,-0.868164 0.09922,-0.545703 -0.248047,-1.016992 -0.322461,-0.47129 -0.892968,-0.545704 -0.545704,-0.09922 -1.016993,0.223243 z M 19.50756,22.347146 q -0.173633,0.545703 0.09922,1.066602 0.272851,0.496093 0.79375,0.669726 0.545703,0.173633 1.041796,-0.07441 0.520899,-0.248047 0.694532,-0.818555 0.173633,-0.545703 -0.07441,-1.041796 -0.248047,-0.520899 -0.818555,-0.694532 -0.545703,-0.173632 -1.066602,0.09922 -0.496093,0.272852 -0.669726,0.79375 z m 14.634765,4.7625 q -0.173633,0.520898 0.07441,1.041797 0.248047,0.496094 0.79375,0.669726 0.520899,0.173633 1.016992,-0.07441 0.520899,-0.272851 0.694532,-0.818554 0.173633,-0.545703 -0.07441,-1.041797 -0.248047,-0.496094 -0.79375,-0.694531 -0.520899,-0.173633 -1.041797,0.07441 -0.496094,0.248047 -0.669727,0.843359 z M 19.50756,27.928201 q 0.173633,0.570507 0.669726,0.818554 0.520899,0.248047 1.091407,0.07441 0.545703,-0.173632 0.79375,-0.669726 0.248047,-0.520899 0.07441,-1.041797 -0.173633,-0.545703 -0.694532,-0.818555 -0.496093,-0.272851 -1.041796,-0.09922 -0.520899,0.198437 -0.79375,0.694531 -0.272852,0.496094 -0.09922,1.041797 z m 14.634765,-4.737696 q 0.148828,0.520899 0.669727,0.79375 0.520898,0.272852 1.041797,0.09922 0.545703,-0.173633 0.79375,-0.669726 0.248047,-0.520899 0.07441,-1.066602 -0.173633,-0.520898 -0.694532,-0.79375 -0.496093,-0.272851 -1.016992,-0.09922 -0.545703,0.173633 -0.79375,0.694532 -0.248047,0.496093 -0.07441,1.041796 z m -11.335742,9.252149 q 0.471289,0.37207 1.016992,0.297656 0.570508,-0.09922 0.892969,-0.570508 0.37207,-0.471289 0.272852,-1.016992 -0.09922,-0.570508 -0.545703,-0.892969 -0.471289,-0.347265 -1.041797,-0.248047 -0.545703,0.07441 -0.917774,0.545704 -0.322461,0.471289 -0.223242,1.016992 0.09922,0.545703 0.545703,0.868164 z m 9.028906,-12.377539 q 0.471289,0.322461 1.016993,0.223242 0.570507,-0.09922 0.892968,-0.545703 0.347266,-0.471289 0.248047,-1.016992 -0.07441,-0.570508 -0.545703,-0.892969 -0.471289,-0.37207 -1.041797,-0.272852 -0.545703,0.09922 -0.892969,0.545704 -0.32246,0.471289 -0.248046,1.041796 0.09922,0.545704 0.570507,0.917774 z m 1.661914,-7.51582 v -1.761133 h 3.323828 v 3.869531 q 0,1.364258 5.581055,2.728516 5.357813,2.158007 5.357813,8.780859 V 37.527615 H 8.2958413 V 26.167068 q 0,-6.622852 5.3578127,-8.780859 5.581054,-1.364258 5.581054,-2.728516 v -3.869531 h 3.323828 v 1.761133 z M 14.050529,6.8690213 q -0.644922,0.1488281 -0.644922,0.5953125 0,0.79375 1.860351,2.4804687 0.694532,0.9425785 0.694532,1.5874995 0,0.942579 -1.463477,1.21543 l -9.2769529,4.092774 q 0,0 -0.2480469,0 -3.0013671,0 -4.6136718,-5.035352 Q 0.68080233,6.8690213 6.8323647,4.3637479 12.983927,0.91589639 27.345841,0.49421671 q 0.595312,0.0248047 1.190625,0.0248047 0.595312,0 1.190625,-0.0248047 14.337109,0.42167968 20.488672,3.86953119 6.151562,2.5052734 6.474023,7.4414061 -1.612305,5.035352 -4.588867,5.035352 0,0 -0.248047,0 l -9.301758,-4.092774 q -1.463476,-0.272851 -1.463476,-1.21543 0,-0.644921 0.694531,-1.5874995 1.860351,-1.6867187 1.860351,-2.4804687 0,-0.4464844 -0.620117,-0.5953125 z M 43.64252,6.1744901 q 0.967383,0.4464843 0.967383,1.2898437 0,0.9921875 -1.339453,2.5052734 -0.768945,0.5457028 -0.768945,1.0666018 0,0.496093 0.768945,0.967383 l 8.086328,3.373437 q 0.37207,0.148828 0.744141,0.148828 1.835547,0 3.373437,-3.745508 Q 55.226309,7.8860135 49.372403,5.1078885 41.608536,1.9080839 29.801505,1.2879667 L 28.61088,1.263162 V 1.287967 H 27.271427 Q 15.439591,1.9080839 7.6757241,5.1078885 1.8466226,7.8860135 1.5985758,11.780349 q 1.5378906,3.745508 3.3734374,3.745508 0.3720703,0 0.7441406,-0.148828 l 8.0863282,-3.373437 q 0.768945,-0.47129 0.768945,-0.967383 0,-0.520899 -0.768945,-1.0666018 -1.339453,-1.5130859 -1.339453,-2.5052734 0,-0.8433594 0.942578,-1.2898437 z"
         id="path391" />
    </g>
  </g>
</svg>
